<svg aria-hidden="true" style="position: absolute; width: 0; height: 0; overflow: hidden;" version="1.1" xmlns="http://www.w3.org/2000/svg" xmlns:xlink="http://www.w3.org/1999/xlink">
<defs>
<symbol id="icon-imgAndLogo" viewBox="0 0 29 32">
<path fill="#000" style="fill: var(--color1, #000)" d="M3.902 0h21.073v21.073h-21.073v-21.073z"></path>
<path fill="#161616" style="fill: var(--color2, #161616)" d="M5.203 24.976h-4.163c-0.575 0-1.041 0.466-1.041 1.041v4.163c0 0.575 0.466 1.041 1.041 1.041h4.163c0.575 0 1.041-0.466 1.041-1.041v-4.163c0-0.575-0.466-1.041-1.041-1.041z"></path>
<path fill="#fff" style="fill: var(--color3, #fff)" d="M2.601 29.469c0.048-0.248 0.088-0.509 0.146-0.77 0.028-0.137-0.006-0.195-0.159-0.184s-0.323 0.005-0.486 0c-0.163-0.005-0.192-0.087-0.098-0.204 0.461-0.569 0.927-1.132 1.392-1.692 0.052-0.063 0.112-0.109 0.198-0.061s0.068 0.107 0.054 0.178c-0.051 0.261-0.094 0.522-0.15 0.778-0.029 0.132 0.009 0.179 0.147 0.174 0.138-0.007 0.277-0.007 0.415 0 0.079 0 0.182-0.041 0.223 0.066s-0.045 0.152-0.088 0.216c-0.177 0.218-0.356 0.435-0.537 0.652-0.266 0.317-0.529 0.633-0.79 0.947-0.051 0.062-0.109 0.111-0.196 0.080s-0.069-0.105-0.069-0.18z"></path>
<path fill="#161616" style="fill: var(--color2, #161616)" d="M10.896 26.287v0.588h-0.968v3.044h-0.728v-3.044h-0.968v-0.588h2.664zM11.032 28.467c0-0.291 0.057-0.55 0.172-0.775 0.118-0.225 0.276-0.399 0.473-0.52 0.201-0.121 0.425-0.182 0.671-0.182 0.215 0 0.402 0.043 0.562 0.13 0.163 0.087 0.293 0.196 0.39 0.328v-0.411h0.734v2.883h-0.734v-0.421c-0.094 0.135-0.224 0.248-0.39 0.338-0.163 0.087-0.352 0.13-0.567 0.13-0.243 0-0.465-0.062-0.666-0.187-0.198-0.125-0.356-0.3-0.473-0.526-0.114-0.229-0.172-0.491-0.172-0.786zM13.3 28.477c0-0.177-0.035-0.328-0.104-0.453-0.069-0.128-0.163-0.225-0.281-0.291-0.118-0.069-0.245-0.104-0.38-0.104s-0.26 0.033-0.375 0.099c-0.114 0.066-0.208 0.163-0.281 0.291-0.069 0.125-0.104 0.274-0.104 0.447s0.035 0.326 0.104 0.458c0.073 0.128 0.166 0.227 0.281 0.297 0.118 0.069 0.243 0.104 0.375 0.104 0.135 0 0.262-0.033 0.38-0.099 0.118-0.069 0.212-0.166 0.281-0.291 0.069-0.128 0.104-0.281 0.104-0.458zM15.64 29.966c-0.236 0-0.447-0.042-0.635-0.125-0.187-0.087-0.336-0.203-0.447-0.349-0.107-0.146-0.166-0.307-0.177-0.484h0.734c0.014 0.111 0.068 0.203 0.161 0.276 0.097 0.073 0.217 0.109 0.359 0.109 0.139 0 0.246-0.028 0.323-0.083 0.080-0.056 0.12-0.127 0.12-0.213 0-0.094-0.049-0.163-0.146-0.208-0.094-0.049-0.245-0.101-0.453-0.156-0.215-0.052-0.392-0.106-0.531-0.161-0.135-0.056-0.253-0.14-0.354-0.255-0.097-0.114-0.146-0.269-0.146-0.463 0-0.16 0.045-0.305 0.135-0.437 0.094-0.132 0.226-0.236 0.395-0.312 0.174-0.076 0.376-0.114 0.609-0.114 0.343 0 0.617 0.087 0.822 0.26 0.205 0.17 0.317 0.401 0.338 0.692h-0.697c-0.010-0.114-0.059-0.205-0.146-0.271-0.083-0.069-0.196-0.104-0.338-0.104-0.132 0-0.234 0.024-0.307 0.073-0.069 0.049-0.104 0.116-0.104 0.203 0 0.097 0.049 0.172 0.146 0.224 0.097 0.049 0.248 0.099 0.453 0.151 0.208 0.052 0.38 0.106 0.515 0.161s0.252 0.142 0.349 0.26c0.101 0.114 0.153 0.267 0.156 0.458 0 0.166-0.047 0.316-0.14 0.447-0.090 0.132-0.222 0.236-0.395 0.312-0.17 0.073-0.369 0.109-0.598 0.109zM18.871 29.919l-0.978-1.228v1.228h-0.728v-3.85h0.728v2.191l0.968-1.223h0.947l-1.27 1.447 1.28 1.436h-0.947zM23.675 27.411c0 0.194-0.047 0.376-0.14 0.546-0.090 0.17-0.234 0.307-0.432 0.411-0.194 0.104-0.441 0.156-0.739 0.156h-0.609v1.394h-0.728v-3.632h1.337c0.281 0 0.52 0.049 0.718 0.146s0.345 0.231 0.442 0.401c0.101 0.17 0.151 0.363 0.151 0.578zM22.333 27.936c0.201 0 0.35-0.045 0.447-0.135 0.097-0.094 0.146-0.224 0.146-0.39 0-0.354-0.198-0.531-0.593-0.531h-0.578v1.056h0.578zM24.713 27.484c0.094-0.153 0.215-0.272 0.364-0.359 0.153-0.087 0.326-0.13 0.52-0.13v0.765h-0.193c-0.229 0-0.402 0.054-0.52 0.161-0.114 0.108-0.172 0.295-0.172 0.562v1.436h-0.728v-2.883h0.728v0.447zM27.16 29.966c-0.278 0-0.527-0.061-0.749-0.182-0.222-0.125-0.397-0.3-0.526-0.526-0.125-0.225-0.187-0.486-0.187-0.78s0.064-0.555 0.193-0.78c0.132-0.225 0.31-0.399 0.536-0.52 0.225-0.125 0.477-0.187 0.754-0.187s0.529 0.062 0.754 0.187c0.225 0.121 0.402 0.295 0.531 0.52 0.132 0.225 0.198 0.486 0.198 0.78s-0.068 0.555-0.203 0.78c-0.132 0.225-0.312 0.401-0.541 0.526-0.226 0.121-0.479 0.182-0.76 0.182zM27.16 29.331c0.132 0 0.255-0.031 0.369-0.094 0.118-0.066 0.212-0.163 0.281-0.291s0.104-0.285 0.104-0.468c0-0.274-0.073-0.484-0.219-0.63-0.142-0.149-0.317-0.224-0.526-0.224s-0.383 0.075-0.526 0.224c-0.139 0.146-0.208 0.355-0.208 0.63s0.068 0.486 0.203 0.635c0.139 0.146 0.312 0.219 0.52 0.219z"></path>
</symbol>
</defs>
</svg>